<?xml version="1.0" encoding="utf-8"?>
<!-- Generator: Adobe Illustrator 23.0.1, SVG Export Plug-In . SVG Version: 6.00 Build 0)  -->
<svg version="1.1" id="Layer_1" xmlns="http://www.w3.org/2000/svg" xmlns:xlink="http://www.w3.org/1999/xlink" x="0px" y="0px"
	 viewBox="0 0 400 400" style="enable-background:new 0 0 400 400;" xml:space="preserve">
<style type="text/css">
	.st0{fill:#FFFFFF;}
	.st1{fill:#FFFFFF;stroke:#FFFFFF;stroke-width:10;stroke-miterlimit:10;}
</style>
<g>
	<circle cx="200" cy="200" r="195"/>
</g>
<g>
	<path class="st0" d="M150.64,270.41c21.73-16.47,41.46-35.48,58.68-56.56c20.57-25.17,37.48-53.13,50.25-83.12
		c8.6-7.4,16.86-15.36,24.57-23.67c4.27-4.6,8.42-9.36,12.42-14.25c-3.67,17.88-9.61,35.03-17.74,51.16
		c-13.32,26.42-28.82,42.69-45.24,59.92c-24.15,25.34-51.77,48.06-82.14,67.57L150.64,270.41z"/>
	<path class="st0" d="M287.57,109.97c-3.34,11.03-7.6,21.72-12.78,31.98c-13.01,25.82-28.3,41.86-44.48,58.84
		c-7.27,7.63-14.86,15.02-22.75,22.15c1.77-2.06,3.51-4.15,5.23-6.25c20.62-25.23,37.6-53.23,50.49-83.24
		c8.44-7.32,16.55-15.16,24.14-23.33C287.48,110.07,287.53,110.02,287.57,109.97 M303.83,76c-6.35,8.75-13.95,18.25-23,28
		c-8.62,9.29-17.1,17.25-25,24c-9.47,22.42-24.9,52.29-50,83c-21.5,26.3-43.62,45.31-61.5,58.5c2,2.67,4,5.33,6,8
		c39.87-25.11,68.09-51.18,86.5-70.5c17.21-18.06,32.66-34.53,46-61C296.75,118.39,301.79,92.96,303.83,76L303.83,76z"/>
</g>
<g>
	<path class="st0" d="M158.86,306.35c-0.85-3.5-1.64-6.47-2.76-9.07c-0.53-1.3-1.12-2.49-1.74-3.6c-0.33-0.55-0.6-0.9-0.9-1.23
		c-0.29-0.32-0.68-0.67-1.03-1.09l-1.28-1.38l-1.39-1.56c-1-1.05-1.92-2.2-2.94-3.34c-0.99-1.14-1.92-2.35-2.91-3.53l-2.8-3.68
		l-2.65-3.79c-0.82-1.3-1.7-2.54-2.47-3.82c-0.77-1.28-1.57-2.5-2.23-3.66c-0.34-0.59-0.66-1.06-0.91-1.52
		c-0.24-0.45-0.37-0.74-0.51-1.02c-0.11-0.26-0.56-0.73-0.98-1.14c-0.43-0.41-0.88-0.81-1.35-1.23c-0.95-0.8-2.01-1.61-3.19-2.35
		c-1.18-0.77-2.48-1.48-3.88-2.2c-1.41-0.7-2.93-1.4-4.57-2.14l-0.11-0.99c3.14-0.44,6.37-0.48,9.55,0.03
		c3.18,0.56,6.24,1.66,9.03,3.43c1.41,0.95,2.53,2.15,3.59,3.34c1.05,1.2,2.05,2.43,3.02,3.66c1.95,2.47,3.83,4.98,5.71,7.5
		c1.83,2.55,3.65,5.11,5.42,7.7c1.76,2.61,3.54,5.21,4.99,8.1c0.72,1.44,1.27,3.07,1.53,4.67c0.27,1.59,0.41,3.2,0.4,4.81
		c-0.06,3.22-0.69,6.39-1.71,9.4L158.86,306.35z"/>
</g>
<path class="st1" d="M151.83,270.26c-13.22,9.91-26.45,19.83-39.67,29.74"/>
<g>
	<rect x="99.33" y="296.5" transform="matrix(0.0871 -0.9962 0.9962 0.0871 -205.3191 383.9385)" width="15" height="15"/>
	<path class="st0" d="M102.29,298.58l9.96,0.87l-0.87,9.96l-9.96-0.87L102.29,298.58 M97.74,293.17L96,313.09l19.92,1.74l1.74-19.92
		L97.74,293.17L97.74,293.17z"/>
</g>
<g>
	<path d="M289.78,107.61c-2.15,8.15-4.93,16.13-8.14,23.95c-3.22,7.81-6.88,15.45-10.93,22.88c-4.07,7.42-8.6,14.59-13.56,21.45
		c-5.06,6.78-10.19,13.51-15.72,19.9c-2.68,3.26-5.57,6.35-8.37,9.5c-1.43,1.55-2.9,3.06-4.35,4.59l-2.18,2.29l-2.25,2.23
		c-5.93,5.99-12.18,11.67-18.58,17.13c-12.88,10.85-26.61,20.66-41.03,29.23l-0.32-0.51c13.88-9.37,27.14-19.62,39.37-30.98
		c6.15-5.63,12.12-11.46,17.76-17.59l2.14-2.28l2.07-2.34c1.38-1.56,2.77-3.1,4.13-4.68c2.65-3.21,5.38-6.34,7.91-9.65
		c10.36-13.03,19.16-27.14,27.79-41.3c2.17-3.54,4.25-7.13,6.29-10.75c2.1-3.59,4.02-7.28,6.03-10.93
		c3.91-7.36,7.65-14.83,11.4-22.36L289.78,107.61z"/>
</g>
<g>
	<path class="st0" d="M248.4,271.47c-30.38-19.51-58-42.23-82.14-67.57c-16.42-17.23-31.93-33.51-45.24-59.92
		c-8.13-16.13-14.07-33.28-17.74-51.16c4,4.88,8.15,9.65,12.42,14.25c7.71,8.31,15.97,16.27,24.57,23.67
		c12.77,29.98,29.67,57.94,50.25,83.12c17.23,21.08,36.95,40.09,58.68,56.56L248.4,271.47z"/>
	<path class="st0" d="M112.26,109.97c0.05,0.05,0.1,0.1,0.14,0.15c7.59,8.18,15.7,16.02,24.14,23.33
		c12.89,30.01,29.87,58.01,50.49,83.24c1.72,2.1,3.46,4.19,5.23,6.25c-7.89-7.13-15.48-14.52-22.75-22.15
		c-16.18-16.98-31.47-33.02-44.48-58.84C119.86,131.68,115.6,121,112.26,109.97 M96,76c2.04,16.96,7.09,42.39,21,70
		c13.34,26.47,28.79,42.94,46,61c18.41,19.32,46.63,45.39,86.5,70.5c2-2.67,4-5.33,6-8c-17.88-13.19-40-32.2-61.5-58.5
		c-25.1-30.71-40.53-60.58-50-83c-7.9-6.75-16.38-14.71-25-24C109.95,94.25,102.35,84.75,96,76L96,76z"/>
</g>
<g>
	<path class="st0" d="M240.02,306.65c-1.35-1.24-2.52-2.68-3.44-4.27c-0.95-1.59-1.68-3.32-2.21-5.16
		c-0.51-1.83-0.82-3.77-0.88-5.75c-0.05-0.99,0.05-2.17,0.25-3.32c0.2-1.17,0.47-2.24,0.81-3.23c0.32-0.97,0.66-1.88,0.99-2.73
		c0.35-0.85,0.72-1.65,1.09-2.44c0.71-1.57,1.53-3.02,2.32-4.45c0.8-1.43,1.68-2.77,2.52-4.14c0.9-1.33,1.81-2.63,2.72-3.92
		c0.97-1.26,1.92-2.53,2.93-3.77c1.05-1.21,2.06-2.47,3.21-3.67c1.15-1.2,2.3-2.43,3.69-3.64c0.68-0.61,1.43-1.27,2.28-1.92
		c0.87-0.65,1.94-1.38,3.09-1.99c1.17-0.64,2.13-0.89,3.1-1.2c0.98-0.28,1.95-0.53,2.95-0.67c1.97-0.32,3.94-0.37,5.84-0.19
		c3.8,0.39,7.32,1.63,10.27,3.82l-0.11,0.99c-3.08-0.27-6.18-0.14-9.17,0.5c-2.97,0.59-5.89,1.71-8.37,3.35
		c-1.18,0.82-2.21,1.94-3.21,3.11c-0.99,1.17-1.95,2.4-2.89,3.64c-1.88,2.48-3.72,5.02-5.55,7.56c-1.86,2.51-3.72,5.03-5.53,7.57
		c-1.79,2.55-3.6,5.11-5.01,7.8c-0.7,1.35-1.19,2.71-1.46,4.21c-0.29,1.49-0.43,3.01-0.46,4.53c-0.11,3.05,0.34,6.12,1.18,9.09
		L240.02,306.65z"/>
</g>
<path class="st1" d="M248,270.26c13.22,9.91,26.45,19.83,39.67,29.74"/>
<g>
	<rect x="285.5" y="296.5" transform="matrix(0.9962 -0.0872 0.0872 0.9962 -25.3833 26.6968)" width="15" height="15"/>
	<path class="st0" d="M297.55,298.58l0.87,9.96l-9.96,0.87l-0.87-9.96L297.55,298.58 M302.09,293.17l-19.92,1.74l1.74,19.92
		l19.92-1.74L302.09,293.17L302.09,293.17z"/>
</g>
<g>
	<path d="M110.61,107.39c3.75,7.53,7.48,15,11.4,22.36c2.01,3.65,3.93,7.34,6.03,10.93c2.04,3.62,4.12,7.21,6.29,10.75
		c8.63,14.16,17.43,28.26,27.79,41.3c2.53,3.31,5.25,6.45,7.91,9.65c1.36,1.58,2.75,3.12,4.13,4.68l2.07,2.34l2.14,2.28
		c5.64,6.13,11.61,11.95,17.76,17.59c12.23,11.36,25.49,21.61,39.37,30.98l-0.32,0.51c-14.42-8.58-28.15-18.38-41.03-29.23
		c-6.41-5.46-12.65-11.14-18.58-17.13l-2.25-2.23l-2.18-2.29c-1.45-1.53-2.92-3.04-4.35-4.59c-2.81-3.15-5.69-6.24-8.37-9.5
		c-5.53-6.39-10.66-13.11-15.72-19.9c-4.96-6.86-9.49-14.03-13.56-21.45c-4.05-7.43-7.72-15.07-10.93-22.88
		c-3.21-7.81-5.99-15.79-8.14-23.95L110.61,107.39z"/>
</g>
</svg>
