<svg width="400" height="400" xmlns="http://www.w3.org/2000/svg">
 <!-- Created with Method Draw - http://github.com/duopixel/Method-Draw/ -->

 <g>
  <title>background</title>
  <rect x="-1" y="-1" width="402" height="402" id="canvas_background" fill="#fff"/>
  <g id="canvasGrid" display="none">
   <rect id="svg_1" width="100%" height="100%" x="0" y="0" stroke-width="0" fill="url(#gridpattern)"/>
  </g>
 </g>
 <g>
  <title>Layer 1</title>
  <ellipse stroke="#fff" ry="200" rx="200" id="svg_2" cy="200" cx="200" stroke-width="1.5" fill="#000"/>
  <path stroke="#000" id="svg_4" d="m203.180632,317.450308c-9.042944,-2.837603 -18.88615,1.310152 -28.547226,-2.822864c7.813289,-0.356196 19.553821,-0.026835 17.480481,-8.518118c3.418681,-9.915915 -3.519192,-20.318784 2.25673,-28.948649c-9.045833,-6.32473 -18.540486,-13.812885 -23.363319,-22.646932c-0.967925,3.56393 -1.86,6.399033 -3.235639,0.254653c-0.788572,-3.006871 -0.31005,7.432736 -3.325054,0.107715c-3.180034,-6.51343 -11.741434,-23.496935 -14.397834,-7.744564c-1.103273,8.128676 -4.565468,2.361109 -6.147918,-2.797321c-1.607819,-9.933102 -7.415299,-19.13517 -8.936356,-29.048878c5.944917,-6.280026 -0.847485,-7.135098 -4.00713,-0.869826c-3.479326,9.939289 -6.459945,19.776382 -2.830313,30.016004c-4.823632,2.891641 -14.134075,-13.456562 -9.851802,-19.72751c3.715062,-7.095514 2.889063,-14.337973 3.507287,-19.137835c3.396796,-5.414607 -3.305013,-11.298598 0.257406,-17.072855c-9.1032,7.272808 -17.243874,12.303274 -14.686685,23.713085c-1.129943,2.846253 3.794037,19.212663 0.658101,13.186021c-5.920676,-11.764933 -5.925225,-24.794564 -1.469685,-36.799298c0.005482,-9.162919 -10.135735,15.82337 -9.387112,3.576213c-0.95979,-9.236448 4.23464,-19.393051 9.154173,-26.695885c-5.601149,-4.884346 -23.74259,-1.423325 -15.160248,-11.792279c8.446093,-5.269982 7.540934,-12.516826 -3.954241,-6.144778c-17.750521,9.553788 -32.477431,21.828042 -48.749814,32.67804c15.634118,-14.727506 33.259117,-28.978967 55.073377,-38.859338c21.150882,-9.76047 51.82032,-10.769553 70.070972,3.217871c4.642107,5.991495 15.43206,9.963323 18.004772,15.35708c-1.89124,8.084557 5.232063,12.093333 5.996782,19.198976c4.495171,5.482918 -4.055593,15.340471 8.735579,12.498911c14.550507,-0.014987 34.463588,-2.377477 35.6018,-15.676462c5.807059,-19.15328 8.480375,-40.551928 27.075267,-55.795436c10.334525,-4.427231 3.91542,-3.248978 -3.636518,-3.978195c-6.676327,-5.69403 6.73894,-14.834544 13.343362,-15.876461c-1.139338,-13.456967 10.793785,8.06749 14.205109,-1.81279c5.118682,0.071337 7.61414,9.07113 10.725917,1.725333c9.279859,5.754209 19.087706,14.458512 6.829493,22.472025c13.945644,4.899318 -14.210079,1.72652 -2.198062,9.232642c9.91378,7.021752 2.905938,19.992892 -5.232083,25.645769c-0.316084,4.250297 9.541722,10.425281 11.523792,15.581669c10.240253,14.527198 12.293583,31.810166 8.368777,47.72935c-5.526057,15.004045 -26.091952,21.533205 -40.63332,31.064889c-12.42142,7.462484 -8.050941,20.551182 -13.932109,30.351266c0.584751,5.658959 4.894964,12.103139 11.019102,15.51917c8.875097,3.634516 19.272501,5.980848 26.448559,11.302195c-6.553931,2.508198 -19.916831,-7.671666 -20.046083,0.292953c-9.736137,-9.268239 -24.352023,-3.049166 -35.053442,-10.176838c8.905619,1.243703 20.481787,0.602694 10.729329,-7.216601c-3.85081,-6.612562 -15.449222,-8.894511 -15.756915,-16.886415c-10.928662,5.027935 -18.365139,11.873369 -26.300968,18.698725c-13.174193,-0.603085 -13.742222,18.858074 0.483245,18.569341c5.84208,1.094903 27.767896,7.060352 10.502055,5.519431c-5.146376,-0.673843 -10.729482,-3.034111 -10.572096,1.394501c-2.360008,-0.311078 -4.467005,-1.171323 -6.639504,-1.857698l0.00001,0z" fill-opacity="null" stroke-opacity="null" stroke-width="1.5" fill="#fff"/>
 </g>
</svg>
