<?xml version="1.0" encoding="utf-8"?>
<!-- Generator: Adobe Illustrator 23.0.1, SVG Export Plug-In . SVG Version: 6.00 Build 0)  -->
<svg version="1.1" id="Layer_1" xmlns="http://www.w3.org/2000/svg" xmlns:xlink="http://www.w3.org/1999/xlink" x="0px" y="0px"
	 viewBox="0 0 400 400" style="enable-background:new 0 0 400 400;" xml:space="preserve">
<style type="text/css">
	.st0{fill:#FFFFFF;}
	.st1{fill:none;stroke:#000000;stroke-width:12;stroke-miterlimit:10;}
	.st2{fill:#FFFFFF;stroke:#000000;stroke-width:12;stroke-miterlimit:10;}
	.st3{fill:none;stroke:#FFFFFF;stroke-width:8;stroke-miterlimit:10;}
</style>
<g>
	<circle class="st0" cx="200" cy="200" r="190"/>
	<path d="M200,15c24.98,0,49.21,4.89,72.01,14.53c22.03,9.32,41.81,22.66,58.81,39.65c16.99,16.99,30.33,36.78,39.65,58.81
		C380.11,150.79,385,175.02,385,200s-4.89,49.21-14.53,72.01c-9.32,22.03-22.66,41.81-39.65,58.81
		c-16.99,16.99-36.78,30.33-58.81,39.65C249.21,380.11,224.98,385,200,385s-49.21-4.89-72.01-14.53
		c-22.03-9.32-41.81-22.66-58.81-39.65c-16.99-16.99-30.33-36.78-39.65-58.81C19.89,249.21,15,224.98,15,200s4.89-49.21,14.53-72.01
		c9.32-22.03,22.66-41.81,39.65-58.81c16.99-16.99,36.78-30.33,58.81-39.65C150.79,19.89,175.02,15,200,15 M200,5
		C92.3,5,5,92.3,5,200s87.3,195,195,195s195-87.3,195-195S307.7,5,200,5L200,5z"/>
</g>
<path class="st1" d="M98,264.5c-9.33-33-18.67-66-28-99c25,11.33,50,22.67,75,34"/>
<path class="st1" d="M302,264.5c9.33-33,18.67-66,28-99c-25,11.33-50,22.67-75,34"/>
<path class="st2" d="M280,263.5c0-43.33,0-86.67,0-130c-26.67,32.43-53.33,64.85-80,97.28c-26.67-32.43-53.33-64.85-80-97.28
	c0,43.33,0,86.67,0,130"/>
<g>
	<path d="M200,114.31l6.55,14.6l14.41,32.12l-12.64,14.98l-8.33,9.87l-8.33-9.87l-12.64-14.98l14.41-32.12L200,114.31 M200,85
		c-11.67,26-23.33,52-35,78c11.67,13.83,23.33,27.67,35,41.5c11.67-13.83,23.33-27.67,35-41.5C223.33,137,211.67,111,200,85L200,85z
		"/>
</g>
<line class="st1" x1="90" y1="280.5" x2="310" y2="280.5"/>
<path class="st3" d="M110,120.5c0,48,0,96,0,144"/>
<path class="st3" d="M290,121.5c0,47.67,0,95.33,0,143"/>
<line class="st3" x1="75" y1="265.5" x2="325" y2="265.5"/>
</svg>
