<svg width="400" height="400" xmlns="http://www.w3.org/2000/svg">
 <style type="text/css">.st0{fill:#FFFFFF;}
	.st1{fill:#FFFFFF;stroke:#000000;stroke-width:5;stroke-miterlimit:10;}
	.st2{fill:none;stroke:#000000;stroke-width:5;stroke-miterlimit:10;}</style>

 <g>
  <title>background</title>
  <rect fill="none" id="canvas_background" height="402" width="582" y="-1" x="-1"/>
 </g>
 <g>
  <title>Layer 1</title>
  <g id="svg_1">
   <circle id="svg_2" r="190" cy="200" cx="200" class="st0"/>
   <path id="svg_3" d="m200,15c24.98,0 49.21,4.89 72.01,14.53c22.03,9.32 41.81,22.66 58.81,39.65c16.99,16.99 30.33,36.78 39.65,58.81c9.64,22.8 14.53,47.03 14.53,72.01s-4.89,49.21 -14.53,72.01c-9.32,22.03 -22.66,41.81 -39.65,58.81c-16.99,16.99 -36.78,30.33 -58.81,39.65c-22.8,9.64 -47.03,14.53 -72.01,14.53s-49.21,-4.89 -72.01,-14.53c-22.03,-9.32 -41.81,-22.66 -58.81,-39.65c-16.99,-16.99 -30.33,-36.78 -39.65,-58.81c-9.64,-22.8 -14.53,-47.03 -14.53,-72.01s4.89,-49.21 14.53,-72.01c9.32,-22.03 22.66,-41.81 39.65,-58.81c16.99,-16.99 36.78,-30.33 58.81,-39.65c22.8,-9.64 47.03,-14.53 72.01,-14.53m0,-10c-107.7,0 -195,87.3 -195,195s87.3,195 195,195s195,-87.3 195,-195s-87.3,-195 -195,-195l0,0z"/>
  </g>
  <g id="svg_4">
   <polygon id="svg_5" points="61,289 61,120.92 200,279.09 339,120.92 339,289  " class="st0"/>
   <path id="svg_6" d="m333,136.83l0,146.17l-128.45,0l4.46,-5.08l123.99,-141.09m-266,0l123.99,141.09l4.46,5.08l-128.45,0l0,-146.17m278,-31.83c-48.33,55 -96.67,110 -145,165c-48.33,-55 -96.67,-110 -145,-165l0,190l290,0c0,-63.33 0,-126.67 0,-190l0,0z"/>
  </g>
  <g id="svg_7">
   <polygon fill="#000000" id="svg_8" points="133.82,289 200,121.34 266.18,289  " class="st0"/>
   <path fill="#000000" id="svg_9" d="m200,137.68l57.36,145.32l-114.72,0l57.36,-145.32m0,-32.68l-75,190l150,0l-75,-190l0,0z"/>
  </g>
 </g>
</svg>