<svg width="400" height="400" xmlns="http://www.w3.org/2000/svg">
 <!-- Created with Method Draw - http://github.com/duopixel/Method-Draw/ -->

 <g>
  <title>background</title>
  <rect x="-1" y="-1" width="402" height="402" id="canvas_background" fill="#fff"/>
  <g id="canvasGrid" display="none">
   <rect id="svg_1" width="100%" height="100%" x="0" y="0" stroke-width="0" fill="url(#gridpattern)"/>
  </g>
 </g>
 <g>
  <title>Layer 1</title>
  <ellipse stroke="#000" ry="193" rx="193" id="svg_2" cy="200" cx="200" stroke-width="10.5" fill="#fff"/>
  <path id="svg_8" d="m158.375968,312.872351c6.382269,-20.401406 23.763457,-32.42897 40.644266,-33.970649c0,-4.343037 0,-8.686056 0,-13.029084c-27.095394,-2.430034 -53.904549,-16.665712 -71.912492,-42.666776c-16.450982,-22.059651 -25.169651,-51.730754 -26.368102,-81.645209c-9.517454,-8.467147 8.888365,-14.627769 11.130651,-5.26164c-5.127711,7.770607 -0.159807,19.958889 0.568943,29.476197c8.120172,44.977789 39.887809,80.924551 76.243617,87.302342c9.296567,5.145339 11.770103,-1.769042 10.181078,-12.363374c1.989568,-8.376253 -5.263361,-5.833434 -9.601814,-7.397287c-28.66327,-6.275819 -53.565695,-34.14408 -60.91491,-69.571858c-2.105518,-10.136214 -2.790235,-21.302173 -5.354285,-29.607374c5.448477,-5.321658 18.530258,-1.41741 11.297064,8.089111c0.775018,40.250222 27.526799,75.763514 59.1725,80.822633c6.543037,3.995204 5.792671,-2.839777 5.557728,-8.312268c3.467093,-13.304433 -6.872744,-11.304565 -13.821459,-14.576823c-19.541909,-8.2971 -33.865303,-32.112772 -35.219691,-57.87498c-9.347964,-10.17413 11.140398,-15.494923 11.285088,-4.907605c-5.36955,7.817206 0.684851,20.509986 3.919873,28.848924c7.309496,14.882986 19.98178,24.930674 33.836188,26.924711c0,-6.645401 0,-13.290793 0,-19.936203c-12.880339,-2.487103 -23.168419,-16.538643 -24.625367,-32.662402c-8.775746,-8.923887 10.320272,-13.227108 11.693489,-4.678758c-4.764772,4.664553 -1.179472,12.148679 1.617964,17.204176c1.998877,2.989514 11.891585,13.394947 11.313913,5.555868c0,-8.862631 0,-17.725254 0,-26.587885c-6.033512,-4.784864 2.275667,-7.971485 -1.352881,-13.620313c2.087042,-5.861933 3.032399,-21.0248 4.595253,-21.205245c5.235088,9.314565 3.280697,22.243762 8.220695,30.344463c-2.725993,3.663387 -3.199584,7.727682 -2.734424,13.157098c0,7.118466 0,14.236932 0,21.355398c7.807385,-2.865484 14.874434,-10.975514 15.368411,-21.627488c-8.921292,-13.08185 21.710573,-10.185084 8.997602,1.413002c-1.324141,15.772666 -12.095347,28.773119 -24.366006,31.430657c0,6.619208 0,13.238416 0,19.857615c21.001488,-2.634535 39.522253,-25.758586 39.894536,-52.540123c-8.744643,-12.064438 19.745175,-11.264662 9.993663,-0.467305c-2.238247,13.079685 -4.406975,26.981205 -11.52905,37.664726c-8.984226,15.173857 -23.376227,24.182904 -38.189623,26.309073c0.120209,8.078731 -3.293351,25.142515 7.876395,18.3353c27.808568,-5.910918 51.454702,-35.01217 55.703101,-70.172196c4.060115,-7.815793 -6.159946,-22.088574 5.859742,-20.120924c7.427597,-2.164323 8.475528,5.604384 4.151633,10.360538c-1.448219,31.708286 -15.500348,62.238768 -37.558998,78.271191c-10.984899,8.066168 -23.458776,13.149819 -36.201399,14.006849c0.126165,6.653555 -0.336774,13.39349 0.435861,19.977564c24.982498,-2.490424 49.574131,-15.99252 65.868808,-40.3498c14.514247,-20.356122 21.988339,-47.207696 23.235003,-74.209582c-7.381138,-8.874054 8.060153,-10.260271 11.738237,-6.221886c-4.161394,10.302207 -3.690017,23.893279 -6.451003,35.798297c-8.975829,46.893274 -41.319765,84.673991 -79.122322,93.216113c-5.181724,1.385917 -10.453248,2.087917 -15.704591,2.908418c-0.502522,8.038845 -0.359466,16.214503 8.204108,14.678097c14.566231,3.821853 28.55051,16.390849 33.204014,34.624901c-30.480731,0 -60.961482,0 -91.442234,0c0.220406,-0.78277 0.440784,-1.565567 0.661218,-2.348302l0.000007,0.00008zm-58.632714,-184.27422c-0.388284,-7.168326 3.06723,-22.458068 4.004467,-24.233047c1.606717,6.56161 8.902505,21.011275 3.344953,25.26886c-2.328138,-0.338858 -5.69294,1.391862 -7.34942,-1.035814zm24.421456,0.487173c-1.212838,-8.849707 3.859847,-17.149678 3.193246,-26.284134c2.277414,7.44743 11.575191,26.042849 1.390994,26.874012c-1.533074,-0.068287 -3.103199,0.03144 -4.584239,-0.589869l0,-0.000009zm25.199856,-0.152202c-1.078213,-8.68155 3.680843,-16.897147 3.266288,-25.852051c2.820729,7.517122 12.304924,28.896628 -0.586691,26.572417l-1.352556,-0.11153l-1.327041,-0.608836l0,0zm24.480415,0.233405c-1.380836,-8.850785 3.822647,-17.211446 3.138277,-26.365346c2.313546,7.49554 11.525902,25.940489 1.40751,27.060367c-1.523192,-0.072422 -3.093296,0.018993 -4.545787,-0.695021zm48.955411,-0.33816c-1.099519,-8.902341 3.76064,-17.323189 3.076822,-26.549925c1.913626,4.491803 4.471833,12.132937 5.601542,18.118265c3.3766,9.745801 -2.794932,11.05919 -8.678364,8.431652l0,0.000009zm25.261042,0.393055c-2.047126,-8.618599 3.751918,-17.277826 2.88401,-26.420241c2.420873,7.353647 8.776616,20.45896 4.62279,26.799947c-2.501286,0.017271 -5.04751,0.36869 -7.5068,-0.379706zm24.665828,-0.182238c-1.579554,-7.184651 3.075895,-21.934896 3.589056,-24.946107c2.474689,7.412473 11.692011,29.669442 -1.976149,25.561957l-1.612906,-0.61585l0,0zm24.828471,-0.135479c-1.349528,-7.890238 3.681232,-19.245926 3.41837,-25.364754c2.454841,7.087467 12.01086,28.536233 -0.66965,26.151906l-1.337694,-0.132131l-1.411026,-0.655021l0,0z" fill-opacity="null" stroke-opacity="null" stroke-width="1.5" stroke="#fff" fill="blue"/>
 </g>
</svg>
