<?xml version="1.0" encoding="utf-8"?>
<!-- Generator: Adobe Illustrator 23.0.1, SVG Export Plug-In . SVG Version: 6.00 Build 0)  -->
<svg version="1.1" id="Layer_1" xmlns="http://www.w3.org/2000/svg" xmlns:xlink="http://www.w3.org/1999/xlink" x="0px" y="0px"
	 viewBox="0 0 400 400" style="enable-background:new 0 0 400 400;" xml:space="preserve">
<style type="text/css">
	.st0{fill:#FFFFFF;}
	.st1{stroke:#000000;stroke-width:12;stroke-miterlimit:10;}
</style>
<g>
	<circle class="st0" cx="200" cy="200" r="190"/>
	<path d="M200,15c24.98,0,49.21,4.89,72.01,14.53c22.03,9.32,41.81,22.66,58.81,39.65c16.99,16.99,30.33,36.78,39.65,58.81
		C380.11,150.79,385,175.02,385,200s-4.89,49.21-14.53,72.01c-9.32,22.03-22.66,41.81-39.65,58.81
		c-16.99,16.99-36.78,30.33-58.81,39.65C249.21,380.11,224.98,385,200,385s-49.21-4.89-72.01-14.53
		c-22.03-9.32-41.81-22.66-58.81-39.65c-16.99-16.99-30.33-36.78-39.65-58.81C19.89,249.21,15,224.98,15,200s4.89-49.21,14.53-72.01
		c9.32-22.03,22.66-41.81,39.65-58.81c16.99-16.99,36.78-30.33,58.81-39.65C150.79,19.89,175.02,15,200,15 M200,5
		C92.3,5,5,92.3,5,200s87.3,195,195,195s195-87.3,195-195S307.7,5,200,5L200,5z"/>
</g>
<g>
	<polygon class="st0" points="105.85,274.79 96.5,94.55 145,116.59 200,91.59 255,116.59 303.5,94.55 294.15,274.79 200,347.42 	"/>
	<path d="M200,98.18l22.53,10.24l27.5,12.5l4.97,2.26l4.97-2.26l27.5-12.5l9.53-4.33l-4.1,79.15l-4.59,88.48L200,339.84l-88.3-68.12
		l-4.59-88.48l-4.1-79.15l9.53,4.33l27.5,12.5l4.97,2.26l4.97-2.26l27.5-12.5L200,98.18 M310,85c-18.33,8.33-36.67,16.67-55,25
		c-18.33-8.33-36.67-16.67-55-25c-18.33,8.33-36.67,16.67-55,25c-18.33-8.33-36.67-16.67-55-25c3.33,64.29,6.67,128.57,10,192.86
		c33.33,25.71,66.67,51.43,100,77.14c33.33-25.71,66.67-51.43,100-77.14C303.33,213.57,306.67,149.29,310,85L310,85z"/>
</g>
<line class="st1" x1="200" y1="148" x2="200" y2="304"/>
<circle cx="200" cy="304" r="10"/>
<g>
	<circle cx="200" cy="149" r="27"/>
</g>
<g>
	<polygon points="192.59,131.95 199.67,112.04 206.74,131.95 225.83,122.88 216.76,141.96 236.67,149.04 216.76,156.12 
		225.83,175.2 206.74,166.13 199.67,186.04 192.59,166.13 173.5,175.2 182.57,156.12 162.67,149.04 182.57,141.96 173.5,122.88 	"/>
</g>
</svg>
