<svg width="400" height="400" xmlns="http://www.w3.org/2000/svg">
 <!-- Created with Method Draw - http://github.com/duopixel/Method-Draw/ -->

 <g>
  <title>background</title>
  <rect x="-1" y="-1" width="402" height="402" id="canvas_background" fill="#fff"/>
  <g id="canvasGrid" display="none">
   <rect id="svg_1" width="100%" height="100%" x="0" y="0" stroke-width="0" fill="url(#gridpattern)"/>
  </g>
 </g>
 <g>
  <title>Layer 1</title>
  <ellipse stroke="#000" ry="193" rx="193" id="svg_2" cy="200" cx="200" stroke-width="10.5" fill="#fff"/>
  <path stroke="#fff" id="svg_5" d="m162.66084,322.319977c-9.232693,-4.120762 2.815263,-12.359567 7.376535,-16.004028c3.072405,-2.806708 -17.608177,0.393719 -8.877015,-9.349491c9.579357,-7.959671 5.960781,-21.425673 -3.614429,-27.685174c-13.177489,-8.806258 -30.085052,-16.343182 -34.9533,-32.786864c-4.922523,-10.242039 6.751323,-21.028995 -0.757231,-30.277823c-6.04371,-12.008627 1.017061,-24.531109 5.405839,-35.655236c2.018291,-15.387971 -10.345394,-27.55693 -17.144658,-40.199001c-8.419035,-12.081049 -13.272153,-26.15825 -13.969535,-40.828365c-1.830917,-6.261827 0.195298,-15.986273 7.506497,-7.544066c15.310742,12.133877 32.119364,23.647464 42.835082,40.255814c2.028376,5.999071 10.150372,23.386093 10.60391,7.641153c0.212416,-21.640322 6.890428,-45.24233 24.00231,-59.74409c11.639204,-10.49673 17.916181,7.882622 18.459259,17.222312c3.029468,18.376589 -1.992238,36.59997 -7.588173,53.959155c-2.054325,8.067371 -7.404307,30.174912 7.853914,22.023487c35.149462,-13.43116 77.735645,0.675171 100.63049,29.528144c10.524559,13.970253 15.133642,31.918776 15.029586,49.152386c-5.419328,10.124665 14.716371,-0.189667 7.420173,11.491145c-4.295194,12.939558 -16.430805,19.960712 -24.931447,29.727415c-8.650099,7.826193 -2.231986,24.55893 -16.536746,27.024482c-20.872381,6.368381 -42.790096,9.157968 -64.518977,10.781696c-12.159417,2.465552 -18.060445,-11.29568 -6.406075,-17.016574c5.587424,-8.525046 21.572882,-9.122467 26.322479,-10.472988c-11.349985,1.099123 -25.347345,-3.485882 -34.911382,3.471189c-5.792097,9.306215 -10.431062,21.555217 -22.577154,24.211488c-5.458429,1.500428 -11.07067,2.703669 -16.659942,1.073825l-0.000009,0.000009z" stroke-width="1.5" fill="grey"/>
 </g>
</svg>
