<?xml version="1.0" encoding="utf-8"?>
<!-- Generator: Adobe Illustrator 23.0.1, SVG Export Plug-In . SVG Version: 6.00 Build 0)  -->
<svg version="1.1" id="Layer_1" xmlns="http://www.w3.org/2000/svg" xmlns:xlink="http://www.w3.org/1999/xlink" x="0px" y="0px"
	 viewBox="0 0 400 400" style="enable-background:new 0 0 400 400;" xml:space="preserve">
<style type="text/css">
	.st0{fill:#FFFFFF;}
	.st1{stroke:#000000;stroke-width:12;stroke-miterlimit:10;}
	.st2{fill:none;stroke:#000000;stroke-width:9;stroke-linecap:round;stroke-miterlimit:10;}
	.st3{fill:none;stroke:#000000;stroke-width:9;stroke-linecap:round;stroke-miterlimit:10;stroke-dasharray:0,62.9267,0,0,0,0;}
	.st4{fill:none;stroke:#000000;stroke-width:9;stroke-linecap:round;stroke-miterlimit:10;stroke-dasharray:0,49.7091,0,0,0,0;}
	.st5{fill:none;stroke:#000000;stroke-width:9;stroke-linecap:round;stroke-miterlimit:10;stroke-dasharray:0,62.5003,0,0,0,0;}
</style>
<g>
	<circle class="st0" cx="200" cy="200" r="190"/>
	<path d="M200,15c24.98,0,49.21,4.89,72.01,14.53c22.03,9.32,41.81,22.66,58.81,39.65c16.99,16.99,30.33,36.78,39.65,58.81
		C380.11,150.79,385,175.02,385,200s-4.89,49.21-14.53,72.01c-9.32,22.03-22.66,41.81-39.65,58.81
		c-16.99,16.99-36.78,30.33-58.81,39.65C249.21,380.11,224.98,385,200,385s-49.21-4.89-72.01-14.53
		c-22.03-9.32-41.81-22.66-58.81-39.65c-16.99-16.99-30.33-36.78-39.65-58.81C19.89,249.21,15,224.98,15,200s4.89-49.21,14.53-72.01
		c9.32-22.03,22.66-41.81,39.65-58.81c16.99-16.99,36.78-30.33,58.81-39.65C150.79,19.89,175.02,15,200,15 M200,5
		C92.3,5,5,92.3,5,200s87.3,195,195,195s195-87.3,195-195S307.7,5,200,5L200,5z"/>
</g>
<g>
	<path class="st0" d="M90.5,280V111.55h13.59c3.82-0.04,7.48-1.03,10.56-2.88c9.77-5.85,10.56-18.07,10.62-19.45l0-13.51h149.44
		v13.59c0.06,1.29,0.85,13.51,10.62,19.36c3.08,1.85,6.74,2.84,10.58,2.88h13.57V280L200,364.81L90.5,280z"/>
	<path d="M272.72,77.72c0,3.86,0,7.73,0,11.59c0.06,1.33,0.84,14.63,11.59,21.08c4.48,2.69,8.96,3.14,11.59,3.16
		c3.86,0,7.73,0,11.59,0c0,55.16,0,110.31,0,165.47c-35.83,27.75-71.67,55.51-107.5,83.26c-35.83-27.75-71.67-55.51-107.5-83.26
		c0-55.16,0-110.31,0-165.47c3.86,0,7.73,0,11.59,0c2.64-0.03,7.11-0.47,11.59-3.16c10.75-6.44,11.54-19.75,11.59-21.08
		c0-3.86,0-7.73,0-11.59c24.24,0,48.48,0,72.72,0S248.48,77.72,272.72,77.72 M276.72,73.72h-4H200h-72.72h-4v4v11.5
		c-0.08,1.59-0.94,12.52-9.65,17.74c-2.78,1.66-6.09,2.56-9.58,2.59l-11.56,0h-4v4v165.47v1.96l1.55,1.2l53.75,41.63l53.75,41.63
		l2.45,1.9l2.45-1.9l87.72-67.94l19.78-15.32l1.55-1.2v-1.96V113.55v-4h-4h-11.59c-3.45-0.03-6.76-0.93-9.54-2.59
		c-8.71-5.22-9.57-16.15-9.65-17.74v-11.5V73.72L276.72,73.72z"/>
</g>
<line class="st1" x1="200" y1="148" x2="200" y2="304"/>
<circle cx="200" cy="304" r="10"/>
<g>
	<circle cx="200" cy="149" r="27"/>
</g>
<g>
	<polygon points="193.02,133.14 200,113.5 206.98,133.14 225.81,124.19 216.86,143.02 236.5,150 216.86,156.98 225.81,175.81 
		206.98,166.86 200,186.5 193.02,166.86 174.19,175.81 183.14,156.98 163.5,150 183.14,143.02 174.19,124.19 	"/>
</g>
<g>
	<g>
		<line class="st2" x1="200" y1="351.69" x2="200" y2="351.69"/>
		<path class="st3" d="M249.75,313.16c16.58-12.84,33.17-25.69,49.75-38.53"/>
		<line class="st2" x1="299.5" y1="274.63" x2="299.5" y2="274.63"/>
		<path class="st4" d="M299.5,224.92c0-33.14,0-66.28,0-99.42"/>
		<line class="st2" x1="299.5" y1="125.5" x2="299.5" y2="125.5"/>
		<line class="st2" x1="262.5" y1="88.5" x2="262.5" y2="88.5"/>
		<path class="st5" d="M200,88.31c-20.5,0-41,0.06-61.5,0.19"/>
		<line class="st2" x1="137.5" y1="88.5" x2="137.5" y2="88.5"/>
		<line class="st2" x1="100.5" y1="125.5" x2="100.5" y2="125.5"/>
		<path class="st4" d="M100.5,175.21c0,33.14,0,66.28,0,99.42"/>
		<line class="st2" x1="100.5" y1="274.63" x2="100.5" y2="274.63"/>
		<path class="st3" d="M150.25,313.16c16.58,12.84,33.17,25.69,49.75,38.53"/>
	</g>
</g>
<g>
	<path d="M259.19,104.19c0,3.15,0,6.29,0,9.44c0.05,1.08,0.68,11.91,9.44,17.16c3.65,2.19,7.29,2.55,9.44,2.57c3.15,0,6.29,0,9.44,0
		c0,44.89,0,89.79,0,134.68c-29.17,22.59-58.33,45.18-87.5,67.77c-29.17-22.59-58.33-45.18-87.5-67.77c0-44.89,0-89.79,0-134.68
		c3.15,0,6.29,0,9.44,0c2.15-0.02,5.79-0.39,9.44-2.57c8.75-5.25,9.39-16.07,9.44-17.16c0-3.15,0-6.29,0-9.44
		c19.73,0,39.46,0,59.19,0S239.46,104.19,259.19,104.19 M263.19,100.19h-4H200h-59.19h-4v4v9.34c-0.07,1.3-0.76,9.78-7.49,13.82
		c-2.71,1.62-5.53,1.99-7.42,2l-9.4,0h-4v4v134.68V270l1.55,1.2l19.1,14.79l68.4,52.98l2.45,1.9l2.45-1.9l68.4-52.98l19.1-14.79
		l1.55-1.2v-1.96V133.36v-4h-4h-9.44c-1.85-0.02-4.67-0.38-7.38-2c-6.73-4.03-7.43-12.52-7.49-13.82v-9.34V100.19L263.19,100.19z"/>
</g>
<g>
	<path class="st0" d="M202.15,129.32c-0.98,1.57-1.91,2.86-2.82,4.09l-2.61,3.5c-0.84,1.12-1.74,2.13-2.74,3.11
		c-0.98,0.99-1.99,2.03-2.73,3.25c-0.77,1.21-1.46,2.48-2,3.83c-0.59,1.33-1.09,2.73-1.45,4.18c-0.77,2.9-1.07,5.98-0.95,9.14
		l-0.68,0.15c-1.22-3.02-1.8-6.33-1.84-9.7c0-1.69,0.17-3.39,0.46-5.09c0.32-1.69,0.82-3.36,1.44-4.98
		c0.61-1.63,1.32-3.26,2.15-4.86c0.87-1.57,2.05-2.95,3.46-4.04c1.41-1.1,2.99-1.96,4.67-2.55c1.69-0.56,3.48-0.9,5.36-0.67
		L202.15,129.32z"/>
</g>
</svg>
